<svg xmlns="http://www.w3.org/2000/svg" xmlns:xlink="http://www.w3.org/1999/xlink" width="40" height="40" viewBox="0 0 40 40">
    <defs>
        <path id="d3oulqtsja" d="M0 1c0-.552.448-1 1-1h10.586c.265 0 .52.105.707.293l1.706 1.706L27 2c.552 0 1 .448 1 1v21c0 .552-.448 1-1 1H1c-.552 0-1-.448-1-1V1z"/>
    </defs>
    <g fill="none" fill-rule="evenodd">
        <g>
            <g>
                <path d="M0 0H40V40H0z"/>
                <g transform="translate(6 7)">
                    <mask id="v8d0mb0b2b" fill="#fff">
                        <use xlink:href="#d3oulqtsja"/>
                    </mask>
                    <use fill="#97C4FF" xlink:href="#d3oulqtsja"/>
                    <path fill="#4C94F0" d="M20.548 9c.25 0 .452.202.452.452v3.096c0 .25-.202.452-.452.452H19v7.548c0 .25-.202.452-.452.452H9.452c-.25 0-.452-.202-.452-.452V13H7.452c-.25 0-.452-.202-.452-.452V9.452c0-.25.202-.452.452-.452h13.096zM18 13h-8v7h8v-7zm2-3H8v2h12v-2z" mask="url(#v8d0mb0b2b)"/>
                    <path fill="#4C94F0" fill-rule="nonzero" d="M14.048 13.872c.25 0 .452.202.452.451V17h1.97c-.013 0 .074.117 0 .417L14 19.5l-2.47-2.083c-.075-.301.014-.417 0-.417h1.97v-2.677c0-.249.202-.451.452-.451h.096z" mask="url(#v8d0mb0b2b)"/>
                    <path fill="#68AAFF" d="M0 0L28 0 28 6 0 6z" mask="url(#v8d0mb0b2b)"/>
                </g>
            </g>
        </g>
    </g>
</svg>
